<svg width="37" height="33" viewBox="0 0 37 33" fill="none" xmlns="http://www.w3.org/2000/svg">
<path d="M35.4565 16.5012L32.2041 22.1345L22.6775 22.1233L25.7109 16.8695L16.75 1.36799L26.8347 1.41224L35.4565 16.5012Z" fill="#ADD4D3"/>
<path d="M10.3015 1.33799H16.8064L21.5599 9.59404L15.4932 9.59374L6.54908 25.1049L1.545 16.3492L10.3015 1.33799Z" fill="#FB8351"/>
<path fill-rule="evenodd" clip-rule="evenodd" d="M17.5995 0.03365L17.5801 0H9.53305L0 16.3424L6.54394 27.7924L6.55197 27.7785L9.02585 32.0634L27.9453 32.148L34.5894 20.7557H34.5452L36.9995 16.5046L27.6132 0.0775801L17.5995 0.03365ZM23.8243 10.932H23.8745L19.1441 2.71656L26.0563 2.74687L33.9135 16.4977L31.4542 20.7575L25.0092 20.7609L27.2563 16.869L23.8243 10.932ZM15.9607 2.67606L19.1862 8.25584L14.7203 8.25574L7.07481 21.5146L6.55329 22.4155L3.09016 16.356L11.0701 2.67606H15.9607ZM12.8596 16.8396L16.2663 10.9318L20.7333 10.932L24.1657 16.8698L21.9181 20.7626L15.1265 20.7663L12.8596 16.8396ZM8.09603 25.1007L9.39205 22.8532L11.3193 19.5241L13.5819 23.4432L20.3724 23.4395L20.3614 23.4585L29.9086 23.4698L26.4121 29.4651L10.5749 29.3942L8.09603 25.1007Z" fill="#333237"/>
</svg>
